PathFileType	4	(X/Y/Z)	pose_F01_0-83.trc
DataRate	CameraRate	NumFrames	NumMarkers	Units	OrigDataRate	OrigDataStartFrame	OrigNumFrames
30	30	9	21	m	30	11	83
Frame#	Time	CHip			RHip			RKnee			RAnkle			RBigToe			RSmallToe			RHeel			LHip			LKnee			LAnkle			LBigToe			LSmallToe			LHeel			Neck			Nose			RShoulder			RElbow			RWrist			LShoulder			LElbow			LWrist			
		X1	Y1	Z1	X2	Y2	Z2	X3	Y3	Z3	X4	Y4	Z4	X5	Y5	Z5	X6	Y6	Z6	X7	Y7	Z7	X8	Y8	Z8	X9	Y9	Z9	X10	Y10	Z10	X11	Y11	Z11	X12	Y12	Z12	X13	Y13	Z13	X14	Y14	Z14	X15	Y15	Z15	X16	Y16	Z16	X17	Y17	Z17	X18	Y18	Z18	X19	Y19	Z19	X20	Y20	Z20	X21	Y21	Z21	
11	0.36666666666666664	-0.23991493773565686	1.8800042817897957	-0.529228399926958	-0.2560345810368346	1.877182105614046	-0.4586883718306154	-0.25607221369829136	1.733474492734296	-0.4325358058110447													-0.22441475310711076	1.8807813042546702	-0.5889712570133847	-0.21990565372061716	1.7387520025615306	-0.5529883409303848	-0.21605062614240023	1.5902635900163098	-0.5378103601109883	-0.2256337761478494	1.5617462045519115	-0.6036501131361045	-0.21231698477076696	1.569410691779946	-0.6184292016088725	-0.22669687492434057	1.584286569961312	-0.5129991779677385	-0.2400676057960893	2.0523903298757333	-0.5263103609637404	-0.24550343470378092	2.123403117513088	-0.577823653513	-0.2614446382947166	2.0492130684107104	-0.4343841864215848	-0.26706973172736936	1.9563492638280289	-0.4036487181926322	-0.27805563261901917	1.8818734958740928	-0.39530895951646083	-0.21172683124375682	2.0547141332318875	-0.6222687498393344	-1.4223658079606918	1.873139416373744	0.6504206627127305	-0.2005892839214759	1.897995240616853	-0.648967888552163
12	0.4	-0.24089561164792858	1.8799756327380275	-0.5323605779660983	-0.2560871416267434	1.8772006226790339	-0.4587311165542108	-0.2560813112477287	1.7330875241342176	-0.43248819880631983													-0.22438297086438205	1.8834955241692535	-0.5892996298319063	-0.21987170239077747	1.7386720101552207	-0.5530970554076621	-0.21632450240413456	1.5899906174651195	-0.5375049232389728	-0.22383550995101587	1.5604897475766641	-0.6051806076612462	-0.21225137936937044	1.5690196866896633	-0.6184310205162028	-0.22669687492434057	1.584286569961312	-0.5129991779677385	-0.23817902035704594	2.0524622668565167	-0.52839121721861	-0.24644215680522494	2.1248402662402293	-0.5813866158984446	-0.2614253518233458	2.049241430684983	-0.434398236766167	-0.26702633426502254	1.9547087944185075	-0.4032920342277741	-0.27750553553594254	1.8790149520141013	-0.39433027567561285	-0.21170861469289984	2.054797344204695	-0.6222720396343475	-1.4238660034220612	1.8733239095137415	0.6527518085959173	-0.2015734239824936	1.899310309529117	-0.6479965357293455
13	0.43333333333333335	-0.2399012181223475	1.8801081316504282	-0.5292789266455238	-0.25601087843861303	1.8770605881444276	-0.4587418353882276	-0.25607792833834064	1.7317887135773278	-0.4323465654254476													-0.22435985732613598	1.8834089991856786	-0.5893062459405042	-0.21947465683221656	1.738474424396957	-0.5534052291990109	-0.2165983786658689	1.589717644913929	-0.5371994863669575	-0.22591365834243313	1.5599530317230037	-0.6029833115410792	-0.214473978523989	1.5669745687666736	-0.6157345690585352	-0.22669687492434057	1.584286569961312	-0.5129991779677385	-0.24005630872529105	2.051177222191701	-0.5258090230542816	-0.2464325292302474	2.1248783665131166	-0.581359140986346	-0.26144450877349784	2.049197284165449	-0.43437465242645396	-0.2659129582983187	1.9590957307740793	-0.40085872001539086	-0.2777856326070591	1.8825443719637924	-0.3949353989622771	-0.21173855621367332	2.0536035770661485	-0.6217565291320539	-1.4405639997838635	1.8739971918893246	0.6792053106031885	-0.20156036293617433	1.904488311858426	-0.6478446611475226
14	0.4666666666666667	-0.2419451463986215	1.8769524471216865	-0.5267970178452295	-0.25616483743116164	1.8743867712587712	-0.45836246726164703	-0.2560745454289525	1.7304899030204377	-0.4322049320445753													-0.22444135104386537	1.8809875830164025	-0.58889388613372	-0.21972881077211323	1.7374962985676776	-0.5530613072715956	-0.2168722549276032	1.5894446723627387	-0.536894049494942	-0.22474768064957704	1.5598559654943533	-0.6087747871804045	-0.21263590337425972	1.5681956960024717	-0.6179499936267401	-0.22669687492434057	1.584286569961312	-0.5129991779677385	-0.24005255060783928	2.0512178666113883	-0.5257672114986875	-0.24643864351406344	2.124917131923881	-0.5814179642832356	-0.2614409895974321	2.0492384059833655	-0.43437646202784647	-0.26490639050521736	1.9563573752352679	-0.39725776392937884	-0.27755200921167655	1.8827203304896185	-0.3949094634687632	-0.21170883063819135	2.0537096483882604	-0.6217022027318336	-1.4568131810975546	1.874411631243637	0.7065175171932154	-0.2015634770643413	1.902391765483513	-0.6479503649927892
15	0.5	-0.23995215084175617	1.8841677284577711	-0.5298241477685979	-0.2562249179608151	1.8800539378250014	-0.45921794732569926	-0.2563667767269312	1.7355937395127683	-0.4325383844170391													-0.2244630509916138	1.8849521623501513	-0.5894505520674457	-0.22003074389086252	1.7398362748459666	-0.5530174525531127	-0.21714613118933754	1.5891716998115482	-0.5365886126229267	-0.22615072476719258	1.561096236055703	-0.6030024934884801	-0.21480272308158233	1.5684554350423519	-0.6157431917647838	-0.22669687492434057	1.584286569961312	-0.5129991779677385	-0.24009071041829486	2.051199931557018	-0.525762165100657	-0.2455004838056853	2.1247404383203023	-0.578371788232323	-0.2614868972457544	2.0492169276988412	-0.4343022232955613	-0.26621054844036285	1.9602945546649273	-0.4016655821283188	-0.2765799153969993	1.8891970531776148	-0.3929810973924005	-0.21176254524839133	2.0536062505519332	-0.6217189197704734	-1.4382011949633517	1.8740667456960893	0.6751035695360735	-0.19975299697927504	1.8994874040854903	-0.6501993444647372
16	0.5333333333333333	-0.24061221468253327	1.879386986524102	-0.532409423257452	-0.2567023909320084	1.8757200210732756	-0.46168122900701347	-0.2563235135027943	1.7342668656732263	-0.4324307901052126													-0.2241705592023657	1.8804987464623462	-0.5889904190395339	-0.22059219614525333	1.7401938013339158	-0.5566219401803506	-0.21742000745107187	1.5888987272603579	-0.5362831757509112	-0.2237221462104815	1.5600639674739043	-0.6052154297712293	-0.21246341320143794	1.5675262413386604	-0.6178802880471737	-0.22669687492434057	1.584286569961312	-0.5129991779677385	-0.24003914985406818	2.0511927019588243	-0.5257530069616005	-0.24643872036920206	2.12490520957563	-0.5813206859065011	-0.26142827572177924	2.0491933209497075	-0.43431142077984636	-0.2670154829416708	1.954778700291632	-0.40332854856201894	-0.2780437228933279	1.8780401913617422	-0.3972161937493656	-0.21174387111327733	2.0548194952789083	-0.6221762150713837	-1.4420114466219123	1.8743025835676257	0.6814807141548679	-0.20048882203617827	1.8997731014191273	-0.6493267990584454
17	0.5666666666666667	-0.24079329500593313	1.8782679743103337	-0.5322229233677118	-0.2561358617782847	1.8744099087714208	-0.45843500312947744	-0.2562802502786575	1.732939991833684	-0.4323231957933861													-0.22444656282541192	1.8809353217106974	-0.5890182388601755	-0.2196713170858819	1.7365876710279033	-0.5530907761042706	-0.21769388371280618	1.5886257547091676	-0.5359777388788958	-0.22379336185529622	1.5602257650922253	-0.605223147766201	-0.2124714671766076	1.5674620808705804	-0.6179040681091031	-0.22669687492434057	1.584286569961312	-0.5129991779677385	-0.24007194657596273	2.0523998780778325	-0.5262238660023465	-0.24646305782939068	2.1248497080776763	-0.5812677657076548	-0.2615062067693584	2.049211625873209	-0.43429310598577775	-0.2682426664165611	1.95346892132722	-0.4064941219912634	-0.2783164468332586	1.8761493002590233	-0.39694716243409833	-0.21171389569985824	2.054755877520996	-0.6221718277730219	-1.4458216982804726	1.874538421439162	0.6878578587736621	-0.2012246470930815	1.9000587987527642	-0.6484542536521535
18	0.6	-0.24082515433173235	1.8824412187418675	-0.5328231585137756	-0.256166019440228	1.8787136261410042	-0.4590507844034231	-0.2562369870545206	1.731613117994142	-0.4322156014815596													-0.22448540658762622	1.884553593010805	-0.5895977295631154	-0.22099006190545606	1.7400039175552475	-0.5562318186600226	-0.21796775997454051	1.588352782157977	-0.5356723020068804	-0.226012570076795	1.5604431980840894	-0.6030125385474765	-0.2146005056022347	1.567502930019544	-0.6157520430936595	-0.22669687492434057	1.584286569961312	-0.5129991779677385	-0.2400725781424305	2.051204793307707	-0.5257234235005396	-0.2455509192713759	2.124640383868162	-0.5783452265252866	-0.2614862441154417	2.049175224397751	-0.43424310086857454	-0.26902831678266814	1.9533848188025793	-0.4012108775199881	-0.27583981864512147	1.877951888472248	-0.3961915442186443	-0.21180771660126968	2.0547147818536455	-0.6221360424620547	-1.449631949939033	1.8747742593106984	0.6942350033924565	-0.20196047214998472	1.900344496086401	-0.6475817082458617
19	0.6333333333333333	-0.24088644697970743	1.87981474747857	-0.5325628092901811	-0.25724316929733637	1.876451359926986	-0.4619005934201879	-0.25628375927926006	1.732014670009714	-0.43217229341839886													-0.222498107277656	1.882429438288462	-0.591479683677891	-0.22095988750062953	1.7397896067053498	-0.556247807930779	-0.21824163623627485	1.5880798096067867	-0.535366865134865	-0.2237616216393837	1.5598487153293865	-0.605576504663441	-0.21261980521892232	1.5680324489009723	-0.6179270374589608	-0.22669687492434057	1.584286569961312	-0.5129991779677385	-0.24006953664778052	2.05117487123892	-0.5257981833653277	-0.24648343406976328	2.124840177843966	-0.5813068835991018	-0.261575374773309	2.048145401279046	-0.434420107939434	-0.2691309489932043	1.9561799178321357	-0.4020545189853679	-0.2759351272500603	1.878572748347919	-0.39644101957178557	-0.2117176897558342	2.053619042603664	-0.6217474743269866	-1.4506919993684064	1.8745427161079677	0.6961341491113656	-0.2019864138642129	1.901081093442604	-0.6476890885365982
